<svg width="20" height="21" viewBox="0 0 20 21" fill="none" xmlns="http://www.w3.org/2000/svg">
<path d="M18.5714 0H1.42411C0.638393 0 0 0.679688 0 1.51406V19.4859C0 20.3203 0.638393 21 1.42411 21H18.5714C19.3571 21 20 20.3203 20 19.4859V1.51406C20 0.679688 19.3571 0 18.5714 0ZM6.04464 18H3.08036V7.97812H6.04911V18H6.04464ZM4.5625 6.60938C3.61161 6.60938 2.84375 5.79844 2.84375 4.80469C2.84375 3.81094 3.61161 3 4.5625 3C5.50893 3 6.28125 3.81094 6.28125 4.80469C6.28125 5.80312 5.51339 6.60938 4.5625 6.60938ZM17.1562 18H14.192V13.125C14.192 11.9625 14.1696 10.4672 12.6518 10.4672C11.1071 10.4672 10.8705 11.7328 10.8705 13.0406V18H7.90625V7.97812H10.75V9.34687H10.7902C11.1875 8.55937 12.1563 7.72969 13.5982 7.72969C16.5982 7.72969 17.1562 9.80625 17.1562 12.5062V18Z" fill="#1074AF"/>
</svg>
