<svg width="268" height="289" viewBox="0 0 268 289" fill="none" xmlns="http://www.w3.org/2000/svg">
<rect opacity="0.9" x="132.571" y="38.7071" width="176.484" height="176.484" transform="rotate(45 132.571 38.7071)" stroke="white"/>
<rect opacity="0.9" x="132.571" y="9" width="177.484" height="177.484" transform="rotate(45 132.571 9)" fill="#06255B" fill-opacity="0.8" stroke="#DA5D24" stroke-width="10"/>
<path d="M68.5617 143V140.504L74.9457 130.856H69.1857V127.4H80.0337V129.896L73.6497 139.544H80.0817V143H68.5617ZM85.6071 143.288C84.2951 143.288 83.3431 142.848 82.7511 141.968C82.1591 141.072 81.8631 139.88 81.8631 138.392V131H85.9911V137.864C85.9911 138.632 86.0871 139.144 86.2791 139.4C86.4871 139.656 86.7911 139.784 87.1911 139.784C87.5751 139.784 87.8951 139.704 88.1511 139.544C88.4071 139.384 88.6631 139.112 88.9191 138.728V131H93.0471V143H89.6871L89.3991 141.416H89.3031C88.8231 141.992 88.2871 142.448 87.6951 142.784C87.1191 143.12 86.4231 143.288 85.6071 143.288ZM98.6661 143L94.7301 131H98.8581L100.154 136.232C100.442 137.432 100.73 138.68 101.018 139.976H101.114C101.402 138.68 101.69 137.432 101.978 136.232L103.274 131H107.21L103.418 143H98.6661ZM114.222 143.288C113.054 143.288 111.998 143.04 111.054 142.544C110.126 142.048 109.39 141.336 108.846 140.408C108.302 139.464 108.03 138.328 108.03 137C108.03 135.704 108.302 134.592 108.846 133.664C109.406 132.72 110.126 131.992 111.006 131.48C111.886 130.968 112.814 130.712 113.79 130.712C114.974 130.712 115.95 130.976 116.718 131.504C117.502 132.016 118.078 132.712 118.446 133.592C118.83 134.472 119.022 135.448 119.022 136.52C119.022 136.872 118.998 137.216 118.95 137.552C118.918 137.872 118.886 138.104 118.854 138.248H112.014C112.206 138.968 112.55 139.472 113.046 139.76C113.542 140.032 114.126 140.168 114.798 140.168C115.566 140.168 116.382 139.928 117.246 139.448L118.59 141.896C117.95 142.344 117.23 142.688 116.43 142.928C115.63 143.168 114.894 143.288 114.222 143.288ZM111.966 135.56H115.518C115.518 135.096 115.398 134.696 115.158 134.36C114.934 134.008 114.51 133.832 113.886 133.832C113.438 133.832 113.038 133.968 112.686 134.24C112.334 134.512 112.094 134.952 111.966 135.56ZM121.287 143V131H124.647L124.935 133.064H125.031C125.479 132.248 126.007 131.656 126.615 131.288C127.239 130.904 127.847 130.712 128.439 130.712C128.807 130.712 129.103 130.736 129.327 130.784C129.567 130.816 129.767 130.872 129.927 130.952L129.255 134.504C129.047 134.456 128.839 134.416 128.631 134.384C128.423 134.336 128.183 134.312 127.911 134.312C127.479 134.312 127.023 134.464 126.543 134.768C126.079 135.056 125.703 135.576 125.415 136.328V143H121.287ZM135.015 143.288C134.087 143.288 133.351 143.104 132.807 142.736C132.279 142.352 131.895 141.824 131.655 141.152C131.431 140.464 131.319 139.672 131.319 138.776V126.296H135.447V138.92C135.447 139.32 135.519 139.6 135.663 139.76C135.823 139.904 135.975 139.976 136.119 139.976C136.199 139.976 136.263 139.976 136.311 139.976C136.375 139.96 136.455 139.944 136.551 139.928L137.031 142.952C136.823 143.048 136.551 143.128 136.215 143.192C135.879 143.256 135.479 143.288 135.015 143.288ZM141.587 143.288C140.835 143.288 140.187 143.12 139.643 142.784C139.115 142.432 138.707 141.976 138.419 141.416C138.131 140.856 137.987 140.248 137.987 139.592C137.987 138.344 138.499 137.368 139.523 136.664C140.547 135.944 142.211 135.464 144.515 135.224C144.419 134.392 143.859 133.976 142.835 133.976C142.403 133.976 141.947 134.064 141.467 134.24C140.987 134.4 140.435 134.648 139.811 134.984L138.371 132.296C139.219 131.784 140.075 131.392 140.939 131.12C141.819 130.848 142.723 130.712 143.651 130.712C145.219 130.712 146.443 131.16 147.323 132.056C148.203 132.936 148.643 134.36 148.643 136.328V143H145.283L144.995 141.848H144.899C144.419 142.28 143.907 142.632 143.363 142.904C142.835 143.16 142.243 143.288 141.587 143.288ZM143.027 140.12C143.363 140.12 143.643 140.048 143.867 139.904C144.091 139.744 144.307 139.544 144.515 139.304V137.672C143.539 137.816 142.859 138.032 142.475 138.32C142.107 138.608 141.923 138.92 141.923 139.256C141.923 139.832 142.291 140.12 143.027 140.12ZM141.059 129.512C140.499 129.512 140.035 129.328 139.667 128.96C139.315 128.592 139.139 128.136 139.139 127.592C139.139 127.048 139.315 126.592 139.667 126.224C140.035 125.856 140.499 125.672 141.059 125.672C141.619 125.672 142.075 125.856 142.427 126.224C142.795 126.592 142.979 127.048 142.979 127.592C142.979 128.136 142.795 128.592 142.427 128.96C142.075 129.328 141.619 129.512 141.059 129.512ZM146.531 129.512C145.971 129.512 145.507 129.328 145.139 128.96C144.787 128.592 144.611 128.136 144.611 127.592C144.611 127.048 144.787 126.592 145.139 126.224C145.507 125.856 145.971 125.672 146.531 125.672C147.091 125.672 147.547 125.856 147.899 126.224C148.267 126.592 148.451 127.048 148.451 127.592C148.451 128.136 148.267 128.592 147.899 128.96C147.547 129.328 147.091 129.512 146.531 129.512ZM155.03 143.288C154.262 143.288 153.446 143.136 152.582 142.832C151.734 142.512 150.998 142.104 150.374 141.608L152.198 139.064C153.286 139.864 154.262 140.264 155.126 140.264C155.558 140.264 155.862 140.208 156.038 140.096C156.23 139.968 156.326 139.784 156.326 139.544C156.326 139.224 156.094 138.976 155.63 138.8C155.166 138.608 154.63 138.392 154.022 138.152C153.558 137.96 153.094 137.72 152.63 137.432C152.182 137.128 151.806 136.744 151.502 136.28C151.198 135.816 151.046 135.256 151.046 134.6C151.046 133.416 151.486 132.472 152.366 131.768C153.246 131.064 154.39 130.712 155.798 130.712C156.79 130.712 157.638 130.88 158.342 131.216C159.062 131.536 159.686 131.896 160.214 132.296L158.39 134.744C157.958 134.424 157.534 134.176 157.118 134C156.702 133.824 156.31 133.736 155.942 133.736C155.238 133.736 154.886 133.96 154.886 134.408C154.886 134.712 155.102 134.952 155.534 135.128C155.982 135.288 156.502 135.48 157.094 135.704C157.574 135.88 158.046 136.112 158.51 136.4C158.99 136.688 159.382 137.064 159.686 137.528C160.006 137.992 160.166 138.584 160.166 139.304C160.166 140.424 159.726 141.368 158.846 142.136C157.982 142.904 156.71 143.288 155.03 143.288ZM165.882 143.288C165.114 143.288 164.298 143.136 163.434 142.832C162.586 142.512 161.85 142.104 161.226 141.608L163.05 139.064C164.138 139.864 165.114 140.264 165.978 140.264C166.41 140.264 166.714 140.208 166.89 140.096C167.082 139.968 167.178 139.784 167.178 139.544C167.178 139.224 166.946 138.976 166.482 138.8C166.018 138.608 165.482 138.392 164.874 138.152C164.41 137.96 163.946 137.72 163.482 137.432C163.034 137.128 162.658 136.744 162.354 136.28C162.05 135.816 161.898 135.256 161.898 134.6C161.898 133.416 162.338 132.472 163.218 131.768C164.098 131.064 165.242 130.712 166.65 130.712C167.642 130.712 168.49 130.88 169.194 131.216C169.914 131.536 170.538 131.896 171.066 132.296L169.242 134.744C168.81 134.424 168.386 134.176 167.97 134C167.554 133.824 167.162 133.736 166.794 133.736C166.09 133.736 165.738 133.96 165.738 134.408C165.738 134.712 165.954 134.952 166.386 135.128C166.834 135.288 167.354 135.48 167.946 135.704C168.426 135.88 168.898 136.112 169.362 136.4C169.842 136.688 170.234 137.064 170.538 137.528C170.858 137.992 171.018 138.584 171.018 139.304C171.018 140.424 170.578 141.368 169.698 142.136C168.834 142.904 167.562 143.288 165.882 143.288ZM173.037 143V131H177.165V143H173.037ZM175.101 129.512C174.429 129.512 173.885 129.328 173.469 128.96C173.053 128.576 172.845 128.072 172.845 127.448C172.845 126.824 173.053 126.328 173.469 125.96C173.885 125.576 174.429 125.384 175.101 125.384C175.773 125.384 176.317 125.576 176.733 125.96C177.149 126.328 177.357 126.824 177.357 127.448C177.357 128.072 177.149 128.576 176.733 128.96C176.317 129.328 175.773 129.512 175.101 129.512ZM184.319 147.944C183.407 147.944 182.567 147.84 181.799 147.632C181.031 147.44 180.415 147.128 179.951 146.696C179.503 146.264 179.279 145.688 179.279 144.968C179.279 144.024 179.839 143.256 180.959 142.664V142.568C180.655 142.344 180.391 142.072 180.167 141.752C179.959 141.416 179.855 141 179.855 140.504C179.855 140.088 179.975 139.68 180.215 139.28C180.471 138.88 180.799 138.536 181.199 138.248V138.152C180.767 137.864 180.383 137.456 180.047 136.928C179.727 136.384 179.567 135.768 179.567 135.08C179.567 134.088 179.807 133.272 180.287 132.632C180.783 131.976 181.423 131.496 182.207 131.192C182.991 130.872 183.823 130.712 184.703 130.712C185.407 130.712 186.047 130.808 186.623 131H191.087V133.976H189.359C189.407 134.12 189.447 134.304 189.479 134.528C189.527 134.752 189.551 134.984 189.551 135.224C189.551 136.168 189.335 136.936 188.903 137.528C188.471 138.104 187.887 138.528 187.151 138.8C186.415 139.072 185.599 139.208 184.703 139.208C184.303 139.208 183.855 139.152 183.359 139.04C183.167 139.216 183.071 139.448 183.071 139.736C183.071 139.992 183.199 140.176 183.455 140.288C183.727 140.4 184.159 140.456 184.751 140.456H186.551C188.055 140.456 189.215 140.704 190.031 141.2C190.863 141.68 191.279 142.472 191.279 143.576C191.279 144.44 190.991 145.2 190.415 145.856C189.855 146.512 189.055 147.024 188.015 147.392C186.975 147.76 185.743 147.944 184.319 147.944ZM184.703 136.76C185.087 136.76 185.399 136.624 185.639 136.352C185.879 136.08 185.999 135.656 185.999 135.08C185.999 134.52 185.879 134.112 185.639 133.856C185.399 133.584 185.087 133.448 184.703 133.448C184.319 133.448 184.007 133.584 183.767 133.856C183.527 134.112 183.407 134.52 183.407 135.08C183.407 135.656 183.527 136.08 183.767 136.352C184.007 136.624 184.319 136.76 184.703 136.76ZM184.991 145.4C185.663 145.4 186.223 145.296 186.671 145.088C187.119 144.896 187.343 144.632 187.343 144.296C187.343 143.976 187.199 143.776 186.911 143.696C186.639 143.616 186.247 143.576 185.735 143.576H184.799C184.319 143.576 183.951 143.56 183.695 143.528C183.455 143.512 183.247 143.48 183.071 143.432C182.783 143.72 182.639 144.008 182.639 144.296C182.639 144.68 182.855 144.96 183.287 145.136C183.735 145.312 184.303 145.4 184.991 145.4ZM195.501 143.288C194.813 143.288 194.237 143.048 193.773 142.568C193.325 142.072 193.101 141.48 193.101 140.792C193.101 140.088 193.325 139.496 193.773 139.016C194.237 138.536 194.813 138.296 195.501 138.296C196.205 138.296 196.781 138.536 197.229 139.016C197.677 139.496 197.901 140.088 197.901 140.792C197.901 141.48 197.677 142.072 197.229 142.568C196.781 143.048 196.205 143.288 195.501 143.288Z" fill="white"/>
</svg>
