<svg width="210" height="189" viewBox="0 0 210 189" fill="none" xmlns="http://www.w3.org/2000/svg">
<rect opacity="0.9" x="88.1307" y="7.07112" width="123.636" height="123.636" transform="rotate(45 88.1307 7.07112)" stroke="#FF7C40"/>
<rect opacity="0.9" x="115.13" y="6.36401" width="124.636" height="124.636" transform="rotate(45 115.13 6.36401)" fill="#06255B" fill-opacity="0.8" stroke="#06255B" stroke-width="9"/>
<path d="M97.8813 95.412L97.6393 96.402H100.279L100.037 95.412C99.8613 94.7227 99.6853 93.9747 99.5093 93.168C99.3333 92.3613 99.1573 91.5987 98.9813 90.88H98.8933C98.7467 91.5987 98.5853 92.3613 98.4093 93.168C98.2333 93.9747 98.0573 94.7227 97.8813 95.412ZM92.3813 102.364L96.7373 88.064H101.313L105.669 102.364H101.665L100.961 99.328H96.9573L96.2533 102.364H92.3813ZM110.729 106.896C109.893 106.896 109.123 106.801 108.419 106.61C107.715 106.434 107.15 106.148 106.725 105.752C106.314 105.356 106.109 104.828 106.109 104.168C106.109 103.303 106.622 102.599 107.649 102.056V101.968C107.37 101.763 107.128 101.513 106.923 101.22C106.732 100.912 106.637 100.531 106.637 100.076C106.637 99.6947 106.747 99.3207 106.967 98.954C107.202 98.5873 107.502 98.272 107.869 98.008V97.92C107.473 97.656 107.121 97.282 106.813 96.798C106.52 96.2993 106.373 95.7347 106.373 95.104C106.373 94.1947 106.593 93.4467 107.033 92.86C107.488 92.2587 108.074 91.8187 108.793 91.54C109.512 91.2467 110.274 91.1 111.081 91.1C111.726 91.1 112.313 91.188 112.841 91.364H116.933V94.092H115.349C115.393 94.224 115.43 94.3927 115.459 94.598C115.503 94.8033 115.525 95.016 115.525 95.236C115.525 96.1013 115.327 96.8053 114.931 97.348C114.535 97.876 114 98.2647 113.325 98.514C112.65 98.7633 111.902 98.888 111.081 98.888C110.714 98.888 110.304 98.8367 109.849 98.734C109.673 98.8953 109.585 99.108 109.585 99.372C109.585 99.6067 109.702 99.7753 109.937 99.878C110.186 99.9807 110.582 100.032 111.125 100.032H112.775C114.154 100.032 115.217 100.259 115.965 100.714C116.728 101.154 117.109 101.88 117.109 102.892C117.109 103.684 116.845 104.381 116.317 104.982C115.804 105.583 115.07 106.053 114.117 106.39C113.164 106.727 112.034 106.896 110.729 106.896ZM111.081 96.644C111.433 96.644 111.719 96.5193 111.939 96.27C112.159 96.0207 112.269 95.632 112.269 95.104C112.269 94.5907 112.159 94.2167 111.939 93.982C111.719 93.7327 111.433 93.608 111.081 93.608C110.729 93.608 110.443 93.7327 110.223 93.982C110.003 94.2167 109.893 94.5907 109.893 95.104C109.893 95.632 110.003 96.0207 110.223 96.27C110.443 96.5193 110.729 96.644 111.081 96.644ZM111.345 104.564C111.961 104.564 112.474 104.469 112.885 104.278C113.296 104.102 113.501 103.86 113.501 103.552C113.501 103.259 113.369 103.075 113.105 103.002C112.856 102.929 112.496 102.892 112.027 102.892H111.169C110.729 102.892 110.392 102.877 110.157 102.848C109.937 102.833 109.746 102.804 109.585 102.76C109.321 103.024 109.189 103.288 109.189 103.552C109.189 103.904 109.387 104.161 109.783 104.322C110.194 104.483 110.714 104.564 111.345 104.564ZM118.735 102.364V91.364H122.519V102.364H118.735ZM120.627 90C120.011 90 119.512 89.8313 119.131 89.494C118.749 89.142 118.559 88.68 118.559 88.108C118.559 87.536 118.749 87.0813 119.131 86.744C119.512 86.392 120.011 86.216 120.627 86.216C121.243 86.216 121.741 86.392 122.123 86.744C122.504 87.0813 122.695 87.536 122.695 88.108C122.695 88.68 122.504 89.142 122.123 89.494C121.741 89.8313 121.243 90 120.627 90ZM128.461 102.628C127.61 102.628 126.935 102.459 126.437 102.122C125.953 101.77 125.601 101.286 125.381 100.67C125.175 100.039 125.073 99.3133 125.073 98.492V87.052H128.857V98.624C128.857 98.9907 128.923 99.2473 129.055 99.394C129.201 99.526 129.341 99.592 129.473 99.592C129.546 99.592 129.605 99.592 129.649 99.592C129.707 99.5773 129.781 99.5627 129.869 99.548L130.309 102.32C130.118 102.408 129.869 102.481 129.561 102.54C129.253 102.599 128.886 102.628 128.461 102.628ZM133.869 102.628C133.239 102.628 132.711 102.408 132.285 101.968C131.875 101.513 131.669 100.971 131.669 100.34C131.669 99.6947 131.875 99.152 132.285 98.712C132.711 98.272 133.239 98.052 133.869 98.052C134.515 98.052 135.043 98.272 135.453 98.712C135.864 99.152 136.069 99.6947 136.069 100.34C136.069 100.971 135.864 101.513 135.453 101.968C135.043 102.408 134.515 102.628 133.869 102.628Z" fill="white"/>
</svg>
