<svg width="229" height="250" viewBox="0 0 229 250" fill="none" xmlns="http://www.w3.org/2000/svg">
<rect opacity="0.6" x="113.633" y="0.707107" width="150.219" height="150.219" transform="rotate(45 113.633 0.707107)" stroke="white"/>
<rect opacity="0.9" x="113.632" y="28.4082" width="151.219" height="151.219" transform="rotate(45 113.632 28.4082)" fill="#06255B" fill-opacity="0.8" stroke="white" stroke-width="8"/>
<path d="M59.3633 143.252C58.0893 143.252 56.9273 143 55.8773 142.496C54.8413 141.978 54.0153 141.201 53.3993 140.165C52.7833 139.129 52.4753 137.834 52.4753 136.28C52.4753 135.132 52.6573 134.117 53.0213 133.235C53.3853 132.339 53.8823 131.583 54.5123 130.967C55.1423 130.351 55.8633 129.889 56.6753 129.581C57.5013 129.259 58.3693 129.098 59.2793 129.098C60.2873 129.098 61.1623 129.28 61.9043 129.644C62.6463 129.994 63.2553 130.414 63.7313 130.904L61.8413 133.214C61.5053 132.92 61.1483 132.682 60.7703 132.5C60.4063 132.304 59.9513 132.206 59.4053 132.206C58.4813 132.206 57.7113 132.556 57.0953 133.256C56.4793 133.942 56.1713 134.908 56.1713 136.154C56.1713 137.428 56.4583 138.415 57.0323 139.115C57.6203 139.801 58.5233 140.144 59.7413 140.144C59.9373 140.144 60.1263 140.123 60.3083 140.081C60.5043 140.039 60.6653 139.976 60.7913 139.892V138.002H58.7753V135.062H63.9833V141.572C63.5073 142.034 62.8563 142.433 62.0303 142.769C61.2183 143.091 60.3293 143.252 59.3633 143.252ZM69.0754 143.252C68.4174 143.252 67.8504 143.105 67.3744 142.811C66.9124 142.503 66.5554 142.104 66.3034 141.614C66.0514 141.124 65.9254 140.592 65.9254 140.018C65.9254 138.926 66.3734 138.072 67.2694 137.456C68.1654 136.826 69.6214 136.406 71.6374 136.196C71.5534 135.468 71.0634 135.104 70.1674 135.104C69.7894 135.104 69.3904 135.181 68.9704 135.335C68.5504 135.475 68.0674 135.692 67.5214 135.986L66.2614 133.634C67.0034 133.186 67.7524 132.843 68.5084 132.605C69.2784 132.367 70.0694 132.248 70.8814 132.248C72.2534 132.248 73.3244 132.64 74.0944 133.424C74.8644 134.194 75.2494 135.44 75.2494 137.162V143H72.3094L72.0574 141.992H71.9734C71.5534 142.37 71.1054 142.678 70.6294 142.916C70.1674 143.14 69.6494 143.252 69.0754 143.252ZM70.3354 140.48C70.6294 140.48 70.8744 140.417 71.0704 140.291C71.2664 140.151 71.4554 139.976 71.6374 139.766V138.338C70.7834 138.464 70.1884 138.653 69.8524 138.905C69.5304 139.157 69.3694 139.43 69.3694 139.724C69.3694 140.228 69.6914 140.48 70.3354 140.48ZM77.6042 143V132.5H80.5442L80.7962 133.76H80.8802C81.3002 133.354 81.7762 133.004 82.3082 132.71C82.8542 132.402 83.4842 132.248 84.1982 132.248C85.3602 132.248 86.1932 132.64 86.6972 133.424C87.2152 134.194 87.4742 135.23 87.4742 136.532V143H83.8622V136.994C83.8622 136.322 83.7782 135.874 83.6102 135.65C83.4422 135.426 83.1762 135.314 82.8122 135.314C82.4762 135.314 82.1962 135.384 81.9722 135.524C81.7482 135.664 81.4962 135.86 81.2162 136.112V143H77.6042ZM89.4489 143V141.068L93.4389 135.314H89.9109V132.5H97.9329V134.432L93.9429 140.186H98.0589V143H89.4489ZM99.7732 143V128.384H103.385V131.786L103.217 133.592C103.581 133.27 104.015 132.969 104.519 132.689C105.037 132.395 105.653 132.248 106.367 132.248C107.529 132.248 108.362 132.64 108.866 133.424C109.384 134.194 109.643 135.23 109.643 136.532V143H106.031V136.994C106.031 136.322 105.947 135.874 105.779 135.65C105.611 135.426 105.345 135.314 104.981 135.314C104.645 135.314 104.365 135.384 104.141 135.524C103.917 135.664 103.665 135.86 103.385 136.112V143H99.7732ZM116.868 143.252C115.846 143.252 114.922 143.035 114.096 142.601C113.284 142.167 112.64 141.544 112.164 140.732C111.688 139.906 111.45 138.912 111.45 137.75C111.45 136.616 111.688 135.643 112.164 134.831C112.654 134.005 113.284 133.368 114.054 132.92C114.824 132.472 115.636 132.248 116.49 132.248C117.526 132.248 118.38 132.479 119.052 132.941C119.738 133.389 120.242 133.998 120.564 134.768C120.9 135.538 121.068 136.392 121.068 137.33C121.068 137.638 121.047 137.939 121.005 138.233C120.977 138.513 120.949 138.716 120.921 138.842H114.936C115.104 139.472 115.405 139.913 115.839 140.165C116.273 140.403 116.784 140.522 117.372 140.522C118.044 140.522 118.758 140.312 119.514 139.892L120.69 142.034C120.13 142.426 119.5 142.727 118.8 142.937C118.1 143.147 117.456 143.252 116.868 143.252ZM114.894 136.49H118.002C118.002 136.084 117.897 135.734 117.687 135.44C117.491 135.132 117.12 134.978 116.574 134.978C116.182 134.978 115.832 135.097 115.524 135.335C115.216 135.573 115.006 135.958 114.894 136.49ZM123.05 143V132.5H126.662V143H123.05ZM124.856 131.198C124.268 131.198 123.792 131.037 123.428 130.715C123.064 130.379 122.882 129.938 122.882 129.392C122.882 128.846 123.064 128.412 123.428 128.09C123.792 127.754 124.268 127.586 124.856 127.586C125.444 127.586 125.92 127.754 126.284 128.09C126.648 128.412 126.83 128.846 126.83 129.392C126.83 129.938 126.648 130.379 126.284 130.715C125.92 131.037 125.444 131.198 124.856 131.198ZM133.425 143.252C132.067 143.252 131.08 142.86 130.464 142.076C129.862 141.278 129.561 140.242 129.561 138.968V135.314H128.175V132.626L129.771 132.5L130.191 129.77H133.173V132.5H135.567V135.314H133.173V138.905C133.173 139.479 133.299 139.878 133.551 140.102C133.803 140.326 134.097 140.438 134.433 140.438C134.601 140.438 134.762 140.424 134.916 140.396C135.084 140.354 135.231 140.312 135.357 140.27L135.903 142.874C135.637 142.958 135.301 143.042 134.895 143.126C134.489 143.21 133.999 143.252 133.425 143.252ZM140.742 143.252C139.93 143.252 139.286 143.091 138.81 142.769C138.348 142.433 138.012 141.971 137.802 141.383C137.606 140.781 137.508 140.088 137.508 139.304V128.384H141.12V139.43C141.12 139.78 141.183 140.025 141.309 140.165C141.449 140.291 141.582 140.354 141.708 140.354C141.778 140.354 141.834 140.354 141.876 140.354C141.932 140.34 142.002 140.326 142.086 140.312L142.506 142.958C142.324 143.042 142.086 143.112 141.792 143.168C141.498 143.224 141.148 143.252 140.742 143.252ZM143.762 143V132.5H147.374V143H143.762ZM145.568 131.198C144.98 131.198 144.504 131.037 144.14 130.715C143.776 130.379 143.594 129.938 143.594 129.392C143.594 128.846 143.776 128.412 144.14 128.09C144.504 127.754 144.98 127.586 145.568 127.586C146.156 127.586 146.632 127.754 146.996 128.09C147.36 128.412 147.542 128.846 147.542 129.392C147.542 129.938 147.36 130.379 146.996 130.715C146.632 131.037 146.156 131.198 145.568 131.198ZM154.558 143.252C153.564 143.252 152.668 143.035 151.87 142.601C151.072 142.167 150.435 141.544 149.959 140.732C149.497 139.906 149.266 138.912 149.266 137.75C149.266 136.588 149.525 135.601 150.043 134.789C150.575 133.963 151.268 133.333 152.122 132.899C152.976 132.465 153.9 132.248 154.894 132.248C155.524 132.248 156.091 132.346 156.595 132.542C157.113 132.738 157.568 133.004 157.96 133.34L156.28 135.65C156.056 135.454 155.853 135.321 155.671 135.251C155.489 135.181 155.3 135.146 155.104 135.146C154.432 135.146 153.907 135.384 153.529 135.86C153.151 136.322 152.962 136.952 152.962 137.75C152.962 138.548 153.158 139.185 153.55 139.661C153.942 140.123 154.418 140.354 154.978 140.354C155.272 140.354 155.559 140.291 155.839 140.165C156.133 140.025 156.406 139.864 156.658 139.682L158.044 142.034C157.526 142.496 156.952 142.818 156.322 143C155.692 143.168 155.104 143.252 154.558 143.252ZM159.718 143V128.384H163.33V131.786L163.162 133.592C163.526 133.27 163.96 132.969 164.464 132.689C164.982 132.395 165.598 132.248 166.312 132.248C167.474 132.248 168.307 132.64 168.811 133.424C169.329 134.194 169.588 135.23 169.588 136.532V143H165.976V136.994C165.976 136.322 165.892 135.874 165.724 135.65C165.556 135.426 165.29 135.314 164.926 135.314C164.59 135.314 164.31 135.384 164.086 135.524C163.862 135.664 163.61 135.86 163.33 136.112V143H159.718ZM174.082 143.252C173.48 143.252 172.976 143.042 172.57 142.622C172.178 142.188 171.982 141.67 171.982 141.068C171.982 140.452 172.178 139.934 172.57 139.514C172.976 139.094 173.48 138.884 174.082 138.884C174.698 138.884 175.202 139.094 175.594 139.514C175.986 139.934 176.182 140.452 176.182 141.068C176.182 141.67 175.986 142.188 175.594 142.622C175.202 143.042 174.698 143.252 174.082 143.252Z" fill="white"/>
</svg>
