<svg width="40" height="40" viewBox="0 0 40 40" fill="none" xmlns="http://www.w3.org/2000/svg">
<circle cx="20" cy="20" r="19.5" stroke="#FF7C40"/>
<path d="M14.2109 13.625V25H12.25V13.625H14.2109ZM18.8516 18.6016V20.1562H13.7109V18.6016H18.8516ZM19.5 13.625V15.1875H13.7109V13.625H19.5ZM20.8828 13H22.7656V23.1953L22.5859 25H20.8828V13ZM28.2812 20.6953V20.8594C28.2812 21.4844 28.2109 22.0599 28.0703 22.5859C27.9349 23.1068 27.7266 23.5599 27.4453 23.9453C27.1693 24.3307 26.8255 24.6302 26.4141 24.8438C26.0078 25.0521 25.5365 25.1562 25 25.1562C24.474 25.1562 24.0156 25.0573 23.625 24.8594C23.2344 24.6615 22.9062 24.3802 22.6406 24.0156C22.3802 23.651 22.1693 23.2161 22.0078 22.7109C21.8464 22.2057 21.7318 21.6484 21.6641 21.0391V20.5156C21.7318 19.901 21.8464 19.3438 22.0078 18.8438C22.1693 18.3385 22.3802 17.9036 22.6406 17.5391C22.9062 17.1693 23.2318 16.8854 23.6172 16.6875C24.0078 16.4896 24.4635 16.3906 24.9844 16.3906C25.526 16.3906 26.0026 16.4948 26.4141 16.7031C26.8307 16.9115 27.1771 17.2083 27.4531 17.5938C27.7292 17.974 27.9349 18.4271 28.0703 18.9531C28.2109 19.4792 28.2812 20.0599 28.2812 20.6953ZM26.3984 20.8594V20.6953C26.3984 20.3151 26.3672 19.9583 26.3047 19.625C26.2422 19.2865 26.138 18.9896 25.9922 18.7344C25.8516 18.4792 25.6589 18.2786 25.4141 18.1328C25.1745 17.9818 24.875 17.9062 24.5156 17.9062C24.1823 17.9062 23.8958 17.9635 23.6562 18.0781C23.4167 18.1927 23.2161 18.349 23.0547 18.5469C22.8932 18.7448 22.7656 18.974 22.6719 19.2344C22.5833 19.4948 22.5234 19.776 22.4922 20.0781V21.4922C22.5391 21.8828 22.638 22.2422 22.7891 22.5703C22.9453 22.8932 23.1641 23.1536 23.4453 23.3516C23.7266 23.5443 24.0885 23.6406 24.5312 23.6406C24.8802 23.6406 25.1745 23.5703 25.4141 23.4297C25.6536 23.2891 25.8438 23.0938 25.9844 22.8438C26.1302 22.5885 26.2344 22.2917 26.2969 21.9531C26.3646 21.6146 26.3984 21.25 26.3984 20.8594Z" fill="#FF7C40"/>
</svg>
