<svg width="72" height="55" viewBox="0 0 72 55" fill="none" xmlns="http://www.w3.org/2000/svg">
<path fill-rule="evenodd" clip-rule="evenodd" d="M55.5307 33.3159L39.0614 16.658L55.5307 0L72 16.658L55.5307 33.3159ZM40.3627 55H33.3654V38.7657C33.3654 37.0552 33.0964 35.7599 32.5754 34.8877C32.0545 34.0156 31.2373 33.5792 30.1239 33.5792C29.0463 33.5792 28.0581 33.834 27.1601 34.3428C26.2614 34.8515 25.1122 35.6192 23.7112 36.6313V37.3398V55H16.7183V38.7657C16.7183 37.0552 16.4448 35.7599 15.9239 34.8877C15.403 34.0156 14.5858 33.5792 13.4724 33.5792C12.3941 33.5792 11.4059 33.834 10.5079 34.3428C9.61256 34.8515 8.44275 35.6325 7.00593 36.6863V55H0V28.5644H4.58092L5.76591 31.3986C7.38237 30.2383 9.05316 29.3279 10.7776 28.6737C12.5021 28.0194 14.0105 27.6923 15.3042 27.6923C18.8605 27.6923 21.2676 28.8915 22.5255 31.29C24.1456 30.1639 25.7942 29.2824 27.4829 28.6462C29.1716 28.0107 30.6621 27.6923 31.9558 27.6923C34.9375 27.6923 37.0841 28.5014 38.3957 30.1183C39.7066 31.7351 40.3627 34.1423 40.3627 37.3398V55Z" fill="#06255B"/>
</svg>
