<svg width="40" height="40" viewBox="0 0 40 40" fill="none" xmlns="http://www.w3.org/2000/svg">
<circle cx="20" cy="20" r="19.5" stroke="#FF7C40"/>
<path d="M16.4453 13.625V25H14.4844V13.625H16.4453ZM24.1094 16.5469H25.8203V24.7656C25.8203 25.526 25.6589 26.1719 25.3359 26.7031C25.013 27.2344 24.5625 27.638 23.9844 27.9141C23.4062 28.1953 22.737 28.3359 21.9766 28.3359C21.6536 28.3359 21.2943 28.2891 20.8984 28.1953C20.5078 28.1016 20.1276 27.9505 19.7578 27.7422C19.3932 27.5391 19.0885 27.2708 18.8438 26.9375L19.7266 25.8281C20.0286 26.1875 20.362 26.4505 20.7266 26.6172C21.0911 26.7839 21.474 26.8672 21.875 26.8672C22.3073 26.8672 22.6745 26.7865 22.9766 26.625C23.2839 26.4688 23.5208 26.237 23.6875 25.9297C23.8542 25.6224 23.9375 25.2474 23.9375 24.8047V18.4609L24.1094 16.5469ZM18.3672 20.8672V20.7031C18.3672 20.0625 18.4453 19.4792 18.6016 18.9531C18.7578 18.4219 18.9818 17.9661 19.2734 17.5859C19.5651 17.2005 19.9193 16.9062 20.3359 16.7031C20.7526 16.4948 21.224 16.3906 21.75 16.3906C22.2969 16.3906 22.763 16.4896 23.1484 16.6875C23.5391 16.8854 23.8646 17.1693 24.125 17.5391C24.3854 17.9036 24.5885 18.3411 24.7344 18.8516C24.8854 19.3568 24.9974 19.9193 25.0703 20.5391V21.0625C25.0026 21.6667 24.888 22.2188 24.7266 22.7188C24.5651 23.2188 24.3516 23.651 24.0859 24.0156C23.8203 24.3802 23.4922 24.6615 23.1016 24.8594C22.7161 25.0573 22.2604 25.1562 21.7344 25.1562C21.2188 25.1562 20.7526 25.0495 20.3359 24.8359C19.9245 24.6224 19.5703 24.3229 19.2734 23.9375C18.9818 23.5521 18.7578 23.099 18.6016 22.5781C18.4453 22.0521 18.3672 21.4818 18.3672 20.8672ZM20.25 20.7031V20.8672C20.25 21.2526 20.2865 21.612 20.3594 21.9453C20.4375 22.2786 20.5547 22.5729 20.7109 22.8281C20.8724 23.0781 21.0755 23.276 21.3203 23.4219C21.5703 23.5625 21.8646 23.6328 22.2031 23.6328C22.6458 23.6328 23.0078 23.5391 23.2891 23.3516C23.5755 23.1641 23.7943 22.9115 23.9453 22.5938C24.1016 22.2708 24.2109 21.9115 24.2734 21.5156V20.1016C24.2422 19.7943 24.1771 19.5078 24.0781 19.2422C23.9844 18.9766 23.8568 18.7448 23.6953 18.5469C23.5339 18.3438 23.3307 18.1875 23.0859 18.0781C22.8411 17.9635 22.5521 17.9062 22.2188 17.9062C21.8802 17.9062 21.5859 17.9792 21.3359 18.125C21.0859 18.2708 20.8802 18.4714 20.7188 18.7266C20.5625 18.9818 20.4453 19.2786 20.3672 19.6172C20.2891 19.9557 20.25 20.3177 20.25 20.7031Z" fill="#FF7C40"/>
</svg>
